<svg width="299.7251965579087" height="261.36000366210936" viewBox="0 0 150 130.7998159632267" class="looka-1j8o68f"><defs id="SvgjsDefs1640"></defs><g id="SvgjsG1641" featurekey="e7LhAk-0" transform="matrix(16.55068588256836,0,0,16.55068588256836,32.63362144767096,-19.095843911329375)" fill="#fff"><title xmlns="http://www.w3.org/2000/svg">icon</title><path xmlns="http://www.w3.org/2000/svg" d="M.76105,1.331a.185.185,0,0,0,.07256.16612.61547.61547,0,0,0,.11976.07763c.06486.03511.12857.071.19657.1009a4.51654,4.51654,0,0,0,.447.165q.05491.01754.11012.03431a1.9216,1.9216,0,0,0-.22417-.0137l-.00412-.0022a.55261.55261,0,0,0-.36048-.05595l-.00688.00157c.01.001.00547.00168-.0138.00222l-.02047.00536a.42511.42511,0,0,0-.0487.0177.24071.24071,0,0,0-.08055.0596.19841.19841,0,0,0-.049.12857A.43429.43429,0,0,0,.797,2.134a.39625.39625,0,0,0-.01307.359.76229.76229,0,0,0,.05106.09372.90786.90786,0,0,0,.06528.0886,1.14538,1.14538,0,0,0,.16167.15781,2.10421,2.10421,0,0,0,.3769.23514q.1068.05459.21778.10191l-.01448.008a.27931.27931,0,0,0-.13491.26538.26458.26458,0,0,0,.16221.19545.82636.82636,0,0,0,.27659.07328.94235.94235,0,0,0,.24274.00117,1.24591,1.24591,0,0,0,.32014-.09356.739.739,0,0,0,.24393-.16281,1.09462,1.09462,0,0,0,.17664-.00234.5954.5954,0,0,0,.33207-.13288A.2128.2128,0,0,0,3.279,2.9862q-.018-.019-.03726-.03656a.62385.62385,0,0,0,.01745-.17446.88986.88986,0,0,0-.10509-.3632,1.50015,1.50015,0,0,0-.108-.18148c.20808.084.40932.182.61517.27a2.51309,2.51309,0,0,0,.40626.14621c.04488.01062.08811.02477.13264.03607.05223.01324.13819.01588.16406-.06147a.07709.07709,0,0,0-.01665-.09122,1.38784,1.38784,0,0,0-.413-.22354c-.14878-.05366-.30121-.0995-.45486-.14188-.17285-.04772-.347-.09227-.5212-.13678Q2.91365,2.01347,2.86833,2A1.84124,1.84124,0,0,0,2.644,1.78032a2.93465,2.93465,0,0,0-.79072-.4652,2.23475,2.23475,0,0,0-.71664-.15748.52832.52832,0,0,0-.27885.04191A.18386.18386,0,0,0,.76105,1.331Zm.38743.80653-.00166-.00178a.53345.53345,0,0,1-.05946-.077c.02063-.00777.04128-.01457.06028-.02026a.95523.95523,0,0,1,.19161-.03738q.04087-.0034.08133-.00423c.01338.00779.02643.016.039.02486a.52964.52964,0,0,1,.05057.04065l.01649.01581.02325.02753a.39451.39451,0,0,1,.06944.13344,1.08126,1.08126,0,0,1,.04856.221,2.07419,2.07419,0,0,1-.23668-.11475,1.63408,1.63408,0,0,1-.18373-.123c-.02489-.01925-.04966-.03911-.07312-.06014l-.01726-.01619Zm.6464.37152c.0004-.06128.00339-.12249-.00143-.18312a.59592.59592,0,0,0-.04973-.19963A.51956.51956,0,0,0,1.673,2.01155q.03228.004.06435.00891.08515.01291.17046.0306a.2569.2569,0,0,0,.04785.14244,1.14215,1.14215,0,0,0,.09211.12841,1.08575,1.08575,0,0,0,.14322.13952,1.11005,1.11005,0,0,0-.21832-.04051.08976.08976,0,0,0-.07309.037.094.094,0,0,0-.01672.07983l.00026.00126-.048-.01588Zm1.04133-.03794.01443.01427.015.01658a.42735.42735,0,0,1,.03782.05054l.01062.01855c-.0043-.00774.00542.01284.00711.01785l.00428.01817.00023.00419.00012.00192-.00094.005-.0004.001-.00114.00246-.00423.0054-.00042.00051L2.908,2.63658l-.00975.007-.02175.01118-.022.00917c.01464-.00564-.01.00253-.01057.00269a.398.398,0,0,1-.0407.00887,3.05586,3.05586,0,0,0-.30182-.203A1.47416,1.47416,0,0,1,2.169,2.211a1.00192,1.00192,0,0,1-.08666-.1181,2.36322,2.36322,0,0,1,.48061.1863A1.23133,1.23133,0,0,1,2.83621,2.47109Zm-.16038.37569.05267-.00252.01518.01333a.77932.77932,0,0,1,.13243.15376c.009.01366.01771.02753.02589.04175l.00982.01906.00049.00108a.60642.60642,0,0,1-.17063-.04175,1.19779,1.19779,0,0,1-.1957-.08474,1.44738,1.44738,0,0,1-.17081-.11662A1.846,1.846,0,0,0,2.67583,2.84678Zm.1383-.607-.00652-.00444a1.7322,1.7322,0,0,0-.21378-.12083q.07354.01849.14729.03656Q2.77869,2.19436,2.81413,2.23981Zm-1.32774.64191c-.04938-.02557-.11861-.06526-.17592-.10219a1.54834,1.54834,0,0,1-.173-.12923c-.02578-.02236-.05045-.046-.07426-.07059L1.05188,2.568l-.01474-.01623c-.01317-.01471-.02566-.03-.03784-.04559a.76528.76528,0,0,1-.05621-.0818l-.00922-.016L.9267,2.39388A.42434.42434,0,0,1,.91,2.352a.21569.21569,0,0,1-.00758-.13442l.00114-.00645L.911,2.194l.0062-.01214C.91453,2.187.9223,2.17367.92366,2.17163l.01282-.017.01273.02224a.5659.5659,0,0,0,.07426.0952,1.27888,1.27888,0,0,0,.32711.23642,2.89488,2.89488,0,0,0,.68551.254c.01752.01668.03546.03291.05338.049a2.30781,2.30781,0,0,0,.3348.26393,1.26594,1.26594,0,0,0,.233.11148l-.021.00117-.05195.00154c-.03766.00066-.075-.00044-.11213-.00245A1.7802,1.7802,0,0,1,2.25933,3.162l-.00639-.0011-.00608-.00122-.02507-.005-.05-.011c-.036-.00833-.07162-.01771-.107-.02772-.06781-.01913-.13431-.04147-.19984-.06575A3.37616,3.37616,0,0,1,1.48639,2.88172Zm.92142.66366a1.12182,1.12182,0,0,1-.17264.04748c-.02044.00407-.041.00727-.06137.00978l-.0044.00049-.00756.00063-.02928.00143A1.08931,1.08931,0,0,1,1.87571,3.582a.72068.72068,0,0,1-.13241-.04191.24.24,0,0,1-.04638-.02456.27647.27647,0,0,1-.04411-.03481l-.00589-.00648-.008-.01039-.01266-.02035c.00365.00636-.00482-.01324-.006-.01717l-.0026-.01015c.0018.00763-.00077-.00814-.00093-.01069-.0003-.00458-.00023-.00926-.00019-.01389l0-.00164.00033-.00276a.21826.21826,0,0,1,.00634-.03041l.00058-.00232.00157-.00409.00664-.016.00659-.01273c-.00437.00814.00594-.00811.00765-.01039l.0072-.00854c-.0043.00491.00468-.00433.00646-.00587l.01221-.00975.00234-.0018.00166-.00094A.233.233,0,0,1,1.70445,3.27l.00973-.00386.01705-.005c.01092-.00295.022-.0051.033-.007l.01707-.00255.0113-.00124a.62187.62187,0,0,1,.07071-.00117,2.50626,2.50626,0,0,0,.37646.09637q.05024.00867.10139.01448a1.80054,1.80054,0,0,0,.20761.06617q.03551.00835.07171.01478A.92986.92986,0,0,1,2.40781,3.54538Zm.79233-.44653a.249.249,0,0,1,.02056.03193l.00274.00662.00517.01579.00105.0043.00077.01495L3.2297,3.177l-.00222.00842-.0043.00957L3.22212,3.197l-.00243.00344-.01261.01567-.00014.00012-.00522.005a.328.328,0,0,1-.03962.031l-.01307.008-.02032.01132c-.01375.00723-.02783.01349-.042.01937a.50119.50119,0,0,1-.0871.02528.69994.69994,0,0,1-.14991.01366.6363.6363,0,0,0,.24573-.13234.46592.46592,0,0,0,.09248-.11386Zm-.11957-.32659c.00161.01385.00262.02793.00335.04206l.00051.02007c-.03672-.02206-.07459-.04245-.11288-.06184a.24905.24905,0,0,0,.074-.07349l.01375-.02519c.00631.02154.01186.04358.01642.06594l.00208.01158ZM.992,1.321l.02526-.00166.033-.0007c.02318-.00014.04624.00063.06919.00192.0342.00187.06809.00519.10179.009a2.29822,2.29822,0,0,1,.80215.26175c.05232.02741.12551.07017.18389.107.065.04107.12792.08516.18892.13173q.04077.03108.08062.06425c-.038-.0094-.07639-.01766-.11548-.02341-.2491-.06841-.49645-.14052-.74038-.22155a4.26662,4.26662,0,0,1-.44438-.16873c-.05426-.025-.10759-.05176-.16095-.07836l-.00765-.004L.99757,1.39275l-.03116-.0192A.28072.28072,0,0,1,.93778,1.352L.93039,1.34511.923,1.33557l.00014-.00009.0044-.00178.00622-.00185A.34865.34865,0,0,1,.992,1.321Z" fill="#fff"></path></g><g id="SvgjsG1642" featurekey="Qg0WB5-0" transform="matrix(3.4160783290863037,0,0,3.4160783290863037,-1.5713945442097006,49.15554542178555)" fill="#fff"><path d="M1.97 5.32 q0 -0.31 0.205 -0.465 t0.585 -0.295 l2.27 -0.79 q0.05 -0.01 0.095 -0.01 l0.085 0 q0.37 0 0.495 0.215 t0.125 0.565 l-0.01 3.15 l1.67 0 q0.32 0 0.52 0.19 t0.2 0.57 l0 1.93 q0 0.42 -0.2 0.615 t-0.52 0.195 l-1.67 0 l0.01 8.04 q0 0.38 -0.22 0.575 t-0.61 0.195 l-2.26 0 q-0.77 0 -0.77 -0.77 l-0.01 -8.04 l-0.73 0 q-0.77 0 -0.77 -0.81 l0 -1.93 q0 -0.76 0.77 -0.76 l0.73 0 z M10.05 7.470000000000001 q0.13 -0.11 0.275 -0.14 t0.275 -0.03 l1.51 0 q0.18 0 0.31 0.065 t0.22 0.175 t0.145 0.25 t0.105 0.29 l0.31 1.28 q0.15 -0.31 0.365 -0.705 t0.57 -0.74 t0.89 -0.58 t1.335 -0.235 q1.28 0 2.24 0.545 t1.58 1.465 q0.19 -0.31 0.52 -0.665 t0.79 -0.655 t1.055 -0.495 t1.315 -0.195 q1.14 0 2.035 0.44 t1.52 1.2 t0.95 1.775 t0.325 2.165 l0 6.55 q0 0.38 -0.165 0.575 t-0.525 0.195 l-2.31 0 q-0.43 0 -0.59 -0.145 t-0.16 -0.565 l0 -6.61 q0 -0.43 -0.135 -0.8 t-0.375 -0.645 t-0.585 -0.43 t-0.765 -0.155 q-0.38 0 -0.72 0.15 t-0.6 0.415 t-0.415 0.64 t-0.155 0.825 l0 6.55 q0 0.38 -0.165 0.575 t-0.525 0.195 l-0.21 0 l-0.08 0 l-2.02 0 q-0.43 0 -0.59 -0.145 t-0.16 -0.565 l0 -6.61 q0 -0.43 -0.125 -0.8 t-0.36 -0.645 t-0.57 -0.43 t-0.755 -0.155 q-0.36 0 -0.705 0.145 t-0.62 0.41 t-0.46 0.635 t-0.215 0.82 l0 6.6 q0 0.17 -0.065 0.34 t-0.195 0.26 q-0.13 0.08 -0.245 0.11 t-0.265 0.03 l-2.26 0 q-0.43 0 -0.62 -0.21 t-0.19 -0.56 l0 -11.19 q0 -0.19 0.085 -0.35 t0.235 -0.25 z M31.36 7.42 q0.13 -0.11 0.27 -0.14 t0.27 -0.03 l1.51 0 q0.19 0 0.315 0.06 t0.205 0.165 t0.135 0.24 t0.105 0.295 l0.42 1.21 q0.28 -0.36 0.565 -0.735 t0.675 -0.68 t0.93 -0.505 t1.32 -0.2 q1.37 0 2.525 0.505 t1.99 1.39 t1.305 2.08 t0.47 2.585 q0 1.38 -0.47 2.58 t-1.305 2.085 t-1.99 1.395 t-2.525 0.51 q-0.65 0 -1.12 -0.155 t-0.835 -0.405 t-0.645 -0.55 t-0.55 -0.6 l0 4.66 q0 0.3 -0.18 0.51 t-0.56 0.21 l-2.29 0 q-0.12 0 -0.26 -0.05 t-0.26 -0.14 t-0.2 -0.225 t-0.08 -0.305 l0 -15.19 q0 -0.2 0.075 -0.33 t0.185 -0.24 z M40.7 13.66 q0 -0.64 -0.21 -1.215 t-0.59 -1.005 t-0.91 -0.68 t-1.17 -0.25 q-0.63 0 -1.195 0.235 t-0.99 0.64 t-0.69 0.955 t-0.295 1.17 l0 0.15 q0 0.66 0.25 1.24 t0.68 1.005 t1.01 0.675 t1.23 0.25 q0.64 0 1.17 -0.25 t0.91 -0.675 t0.59 -1.005 t0.21 -1.24 z"></path></g></svg>
